<?xml version="1.0" encoding="iso-8859-1"?>
<!-- Generator: Adobe Illustrator 18.0.0, SVG Export Plug-In . SVG Version: 6.00 Build 0)  -->
<!DOCTYPE svg PUBLIC "-//W3C//DTD SVG 1.1//EN" "http://www.w3.org/Graphics/SVG/1.1/DTD/svg11.dtd">
<svg version="1.1" id="Capa_1" xmlns="http://www.w3.org/2000/svg" xmlns:xlink="http://www.w3.org/1999/xlink" x="0px" y="0px"
	 viewBox="0 0 493.485 493.485" style="enable-background:new 0 0 493.485 493.485;" xml:space="preserve">
<g id="XMLID_237_">
	<path id="XMLID_240_" d="M148.836,345.161C264.901,461.226,392.5,521.824,433.821,480.504L13.467,60.151
		C-27.845,101.472,32.738,229.072,148.836,345.161z"/>
	<path id="XMLID_239_" d="M195.627,138.033c9.675-9.667,9.675-25.356,0-35.024L99.875,7.256c-9.675-9.674-25.356-9.674-35.023,0
		L32.154,39.945l130.778,130.784L195.627,138.033z"/>
	<path id="XMLID_238_" d="M485.74,393.594l-95.746-95.744c-4.646-4.648-10.952-7.259-17.514-7.259
		c-6.572,0-12.868,2.611-17.516,7.259l-32.688,32.695l130.775,130.769l32.689-32.695
		C495.415,418.951,495.415,403.269,485.74,393.594z"/>
</g>
<g>
</g>
<g>
</g>
<g>
</g>
<g>
</g>
<g>
</g>
<g>
</g>
<g>
</g>
<g>
</g>
<g>
</g>
<g>
</g>
<g>
</g>
<g>
</g>
<g>
</g>
<g>
</g>
<g>
</g>
</svg>
